<?xml version="1.0" encoding="utf-8"?>
<!-- Generator: Adobe Illustrator 26.0.1, SVG Export Plug-In . SVG Version: 6.00 Build 0)  -->
<svg version="1.1" id="Livello_1" xmlns="http://www.w3.org/2000/svg" xmlns:xlink="http://www.w3.org/1999/xlink" x="0px" y="0px"
	 viewBox="0 0 265.53 273.26" style="enable-background:new 0 0 265.53 273.26;" xml:space="preserve">
<style type="text/css">
	.st0{fill:none;stroke:#61DAFB;stroke-width:10;stroke-miterlimit:10;}
	.st1{fill:#61DAFB;}
	.st2{fill:#EAF4E6;}
	.st3{fill:#EF3D39;}
	.st4{fill:none;stroke:#231F20;stroke-width:10;stroke-miterlimit:10;}
	.st5{fill:#FFFFFF;}
</style>
<g>
	<g>
		<path class="st0" d="M184.3,50.93c-16.74-10.38-36.33-16.67-57.42-17.42C62.21,31.18,7.9,81.72,5.57,146.39
			c-2.33,64.67,48.21,118.98,112.88,121.31c64.67,2.33,118.98-48.21,121.3-112.88c0.88-24.34-9.45-52.72-21.28-72.04"/>
		<line class="st0" x1="57.75" y1="220.55" x2="100.73" y2="221.63"/>
		<path class="st1" d="M105.54,216.31c0,0,84.13-169.58,90.79-180.98c6.66-11.4,59.91-35.29,59.91-35.29s13.54-1.12,7.93,8.5
			c-5.61,9.62-60.6,103.85-60.6,103.85s-23.37,25.68-41.88,26.48l-36.95,54.49c0,0,4.32,3.72-5.33,9.13c0,0-9.97,11.37-10.98,11.64
			l-2.29,2.37C106.13,216.5,104.89,217.61,105.54,216.31z"/>
	</g>
	<polygon class="st1" points="125.32,167.47 132.14,157.46 63.66,157.46 63.66,167.47 	"/>
	<polygon class="st1" points="152.53,158.06 146.47,168.08 177,168.08 177,158.06 	"/>
	<polygon class="st1" points="33.71,178.54 33.71,188.66 115.56,188.66 121.66,176.6 33.71,176.6 	"/>
	<polygon class="st1" points="140.23,176.6 133.76,188.66 213.29,190.36 213.29,176.6 	"/>
	<path class="st1" d="M130.12,195.14c0,0-1.61,6.79-6.47,7.47l-1.98,3.06l46.24,1.19v-11.72H130.12z"/>
	<polygon class="st1" points="111.11,195.14 104.77,206.86 63.66,206.86 63.66,195.14 	"/>
</g>
</svg>
