<?xml version="1.0" encoding="utf-8"?>
<!-- Generator: Adobe Illustrator 26.0.1, SVG Export Plug-In . SVG Version: 6.00 Build 0)  -->
<svg version="1.1" id="Livello_1" xmlns="http://www.w3.org/2000/svg" xmlns:xlink="http://www.w3.org/1999/xlink" x="0px" y="0px"
	 viewBox="0 0 265.53 273.26" style="enable-background:new 0 0 265.53 273.26;" xml:space="preserve">
<style type="text/css">
	.st0{fill:none;stroke:#61DAFB;stroke-width:10;stroke-miterlimit:10;}
	.st1{fill:#61DAFB;}
	.st2{fill:#EAF4E6;}
	.st3{fill:#EF3D39;}
	.st4{fill:none;stroke:#231F20;stroke-width:10;stroke-miterlimit:10;}
	.st5{fill:#FFFFFF;}
</style>
<g>
	<path class="st0" d="M136.98,19.54C72.31,17.21,18,67.75,15.68,132.42c-2.33,64.67,48.21,118.98,112.88,121.3
		c64.67,2.33,118.98-48.21,121.31-112.88C252.19,76.17,201.65,21.86,136.98,19.54z"/>
	<g>
		<circle class="st1" cx="130.68" cy="74.23" r="13.62"/>
		<path class="st1" d="M221.94,192.26l0.42-0.21l-0.42-0.27l0.24-13.6l-7.33-10.09l-9.53-5.91l-6.55,10.56l-39.88-23.17
			c-4.57-14.73-13.72-44.23-14.6-47.22c-1.17-4-5.44-5.06-5.44-5.06L91.62,80.5c0,0-9.35-2.88-18.47-7.2
			c-9.11-4.32-5.04,2.52-5.04,2.52l7.95,25.62L56.97,90.35l-6.23,4l37.18,21.77l-40.43,75.9c-5.04,6,1.48,9.35,1.48,9.35
			l48.65-61.88c0,0,19.91,9.83,25.34,13.91c5.43,4.08,0,11.51,0,11.51s-17.43,20.87-23.18,27.34c-5.76,6.48,0.48,9.11,0.48,9.11
			l4.92-5.76c0,0,19.55-22.06,26.74-32.62c7.19-10.55-2.28-15.71-2.28-15.71l-16.28-16.28l38.21,22.37l1.07,3.59l6.1,0.61
			l32.88,19.25l-0.05,0.08l3.08,2l-6.97,10.71l9.52,6.2l12.37,2.43l12.29-5.95l0.09,0.06L221.94,192.26z M91.09,110.18l-7.46-4.33
			L76.27,80.5l23.98,12.47L91.09,110.18z M115.36,124.28l21.17-21.17l12.11,40.5L115.36,124.28z"/>
	</g>
</g>
</svg>
