<?xml version="1.0" encoding="utf-8"?>
<!-- Generator: Adobe Illustrator 26.0.1, SVG Export Plug-In . SVG Version: 6.00 Build 0)  -->
<svg version="1.1" id="Livello_1" xmlns="http://www.w3.org/2000/svg" xmlns:xlink="http://www.w3.org/1999/xlink" x="0px" y="0px"
	 viewBox="0 0 265.53 273.26" style="enable-background:new 0 0 265.53 273.26;" xml:space="preserve">
<style type="text/css">
	.st0{fill:none;stroke:#61DAFB;stroke-width:10;stroke-miterlimit:10;}
	.st1{fill:#61DAFB;}
	.st2{fill:#EAF4E6;}
	.st3{fill:#EF3D39;}
	.st4{fill:none;stroke:#231F20;stroke-width:10;stroke-miterlimit:10;}
	.st5{fill:#FFFFFF;}
</style>
<g>
	<path class="st0" d="M136.98,19.54C72.31,17.21,18,67.75,15.68,132.42c-2.33,64.67,48.21,118.98,112.88,121.3
		c64.67,2.33,118.98-48.21,121.3-112.88C252.19,76.17,201.65,21.86,136.98,19.54z"/>
	<path class="st1" d="M167.18,115.38l-22.74,9.71c-10.2-1.62-21.35,0.81-21.35,0.81c-20.22,4.85-31.55,43.28-31.55,43.28
		c-4.04-21.44,23.87-44.09,23.87-44.09c-7.69,0.81-14.32-4.45-14.32-4.45c-82.68,45.3-29.36,82.52-29.36,82.52
		c54.2,26.29,76.45-33.98,76.45-33.98c9.71-31.15,38.02-47.33,38.02-47.33C170.82,121.04,167.18,115.38,167.18,115.38z
		 M74.69,178.48c-5.39,0.13-6.74-4.99-6.74-4.99s-1.62-10.38,4.72-17.39c6.34-7.01,13.75-18.61,27.64-25.21c0,0,8.9-1.89,2.97,2.76
		c-5.93,4.65-22.79,17.6-23.46,38.22C79.81,171.87,80.08,178.34,74.69,178.48z M157.2,135.6c-16.18,10.38-23.33,36.27-25.62,44.76
		c-2.29,8.5-7.01,9.44-7.01,9.44c-12.81,4.18-12.94-5.66-9.03-8.22c3.91-2.56,7.01-8.9,7.01-8.9c7.69-18.34,20.09-35.06,20.09-35.06
		s10.11-10.79,15.37-7.55C163.27,133.31,157.2,135.6,157.2,135.6z"/>
	<path class="st1" d="M208.84,115.38c-8.49-1.62-17.66-2.83-31.69-27.1c-14.02-24.27-44.39,0-44.39,0s3.27-12.94-23.43-8.9
		c0,0-16.58,6.07-23.87,19.42c-7.28,13.35-24.67,21.03-24.67,21.03s-9.3,1.21-2.02,6.07c7.28,4.85,10.11,2.83,12.54,23.46
		l10.52-12.73c0,0-6.24-7.5-14.56-11.94c0,0-3.64-2.83,1.62-4.45c5.26-1.62,23.06-14.56,23.06-14.56s8.09-5.66,21.03-2.02
		c0,0,10.92,7.28,25.08,1.21c14.16-6.07,22.65,0.81,27.91,4.85c5.26,4.04,4.45,8.49,26.7,10.52c0,0,3.48-1.62-2.51,3.24
		c-5.99,4.85-28.64,20.39-34.3,39.12c0,0-7.96,21.69-11.06,23.31c-3.1,1.62-5.39,2.16-3.1,3.91c0,0,27.1-7.69,37.21-39.64
		c0,0,11.73-25.08,29.93-29.12C208.84,121.04,217.34,117,208.84,115.38z M118.24,92.59c-3.64-4.18-7.55-2.7-7.55-2.7
		s-2.83,3.24-5.38,1.35c-2.54-1.89,0-4.99,0-4.99c10.26-10.11,19.67-3.78,21.96-0.67C129.56,88.68,123.5,98.63,118.24,92.59z
		 M162.87,92.73c0,0-0.4,0.54-4.31-2.97c-3.91-3.5-4.72,1.08-4.72,1.08s-4.53,4.45-7.55-2.29c0,0-0.81-3.1,2.56-4.04
		c0,0,13.21-8.76,19.28,0C174.19,93.27,162.87,92.73,162.87,92.73z"/>
	<path class="st1" d="M88.44,110.66c0,0,4.04,6.74,10.11,3.1c0,0,0.94-2.16,2.7,0.27c1.75,2.43,12.27,11.33,23.46,2.83
		c0,0,2.16-2.83,4.72,0.13c2.56,2.97,11.87,6.2,24.81-0.81c0,0,1.21-1.75,2.16,0c0.94,1.75,7.53,6.66,11.06,2.43
		c3.52-4.24,0-5.66,0-5.66s-9.98-9.98-19.69-9.03c0,0-11.8,1.75-15,5.8c0,0-4.35,2.43-12.27-0.81c-7.92-3.24-15.34-7.15-25.05-3.51
		C85.74,109.04,88.44,110.66,88.44,110.66z"/>
</g>
</svg>
