<?xml version="1.0" encoding="utf-8"?>
<!-- Generator: Adobe Illustrator 26.0.1, SVG Export Plug-In . SVG Version: 6.00 Build 0)  -->
<svg version="1.1" id="Livello_1" xmlns="http://www.w3.org/2000/svg" xmlns:xlink="http://www.w3.org/1999/xlink" x="0px" y="0px"
	 viewBox="0 0 265.53 273.26" style="enable-background:new 0 0 265.53 273.26;" xml:space="preserve">
<style type="text/css">
	.st0{fill:none;stroke:#61DAFB;stroke-width:10;stroke-miterlimit:10;}
	.st1{fill:#61DAFB;}
	.st2{fill:#EAF4E6;}
	.st3{fill:#EF3D39;}
	.st4{fill:none;stroke:#231F20;stroke-width:10;stroke-miterlimit:10;}
	.st5{fill:#FFFFFF;}
</style>
<g>
	<g>
		
			<ellipse transform="matrix(0.0939 -0.9956 0.9956 0.0939 -15.7243 255.9781)" class="st0" cx="132.77" cy="136.63" rx="117.17" ry="117.17"/>
	</g>
	<path class="st1" d="M135.74,52.79c-41.1,0-74.43,33.32-74.43,74.43c0,4.09,0.34,8.09,0.98,11.99c5.26,67.25,1.67,70.52,1.67,70.52
		l29.82-21.03l-0.01-0.02c11.95,8.17,26.4,12.96,41.96,12.96c41.11,0,74.43-33.32,74.43-74.43
		C210.17,86.11,176.85,52.79,135.74,52.79z M91.01,107.29c-0.1,1.62-1.61,2.84-3.37,2.73l-2.97-0.18c-1.76-0.11-3.11-1.51-3.01-3.12
		l1.53-9.32l2.02,3.87l2.97,0.18c1.76,0.11,3.11,1.51,3.01,3.12L91.01,107.29z M101.44,107.94c-0.1,1.62-1.61,2.84-3.37,2.73
		l-2.97-0.18c-1.76-0.11-3.11-1.51-3.01-3.12l1.53-9.32l2.02,3.87l2.97,0.18c1.76,0.11,3.11,1.51,3.01,3.12L101.44,107.94z
		 M162.92,146.96l-54.94-0.79c-2.35-0.03-4.23-1.97-4.2-4.32c0.03-2.35,1.97-4.23,4.32-4.2l54.94,0.79c2.35,0.03,4.23,1.97,4.2,4.32
		C167.21,145.11,165.28,146.99,162.92,146.96z M163.15,131.17l-54.94-0.79c-2.35-0.03-4.23-1.97-4.2-4.32
		c0.03-2.35,1.97-4.23,4.32-4.2l54.94,0.79c2.35,0.03,4.23,1.97,4.2,4.32C167.44,129.32,165.51,131.2,163.15,131.17z M163.38,115.37
		l-54.94-0.79c-2.35-0.03-4.24-1.97-4.2-4.32c0.03-2.35,1.97-4.24,4.32-4.2l54.94,0.79c2.35,0.03,4.23,1.97,4.2,4.32
		C167.67,113.52,165.73,115.4,163.38,115.37z M182.18,150.93l-2.06-3.84l-2.97-0.15c-1.77-0.09-3.13-1.47-3.05-3.09l0.14-2.73
		c0.08-1.62,1.58-2.86,3.34-2.77l2.97,0.15c1.76,0.09,3.13,1.47,3.05,3.09L182.18,150.93z M190.55,147.62l-2.97-0.15
		c-1.76-0.09-3.13-1.47-3.05-3.09l0.14-2.72c0.08-1.62,1.58-2.86,3.34-2.77l2.97,0.15c1.76,0.09,3.13,1.47,3.05,3.09l-1.42,9.34
		L190.55,147.62z"/>
</g>
</svg>
