<?xml version="1.0" encoding="utf-8"?>
<!-- Generator: Adobe Illustrator 26.0.1, SVG Export Plug-In . SVG Version: 6.00 Build 0)  -->
<svg version="1.1" id="Livello_1" xmlns="http://www.w3.org/2000/svg" xmlns:xlink="http://www.w3.org/1999/xlink" x="0px" y="0px"
	 viewBox="0 0 265.53 273.26" style="enable-background:new 0 0 265.53 273.26;" xml:space="preserve">
<style type="text/css">
	.st0{fill:none;stroke:#61DAFB;stroke-width:10;stroke-miterlimit:10;}
	.st1{fill:#61DAFB;}
	.st2{fill:#EAF4E6;}
	.st3{fill:#EF3D39;}
	.st4{fill:none;stroke:#231F20;stroke-width:10;stroke-miterlimit:10;}
	.st5{fill:#FFFFFF;}
</style>
<g>
	<path class="st0" d="M136.98,19.54C72.31,17.21,18,67.75,15.68,132.42c-2.33,64.67,48.21,118.98,112.88,121.3
		c64.67,2.33,118.98-48.21,121.3-112.88C252.19,76.17,201.65,21.86,136.98,19.54z"/>
	<g>
		<path class="st1" d="M80.63,107.84c0,10.69-8.67,19.36-19.36,19.36c-10.69,0-19.36-8.67-19.36-19.36s8.67-19.36,19.36-19.36
			C71.96,88.48,80.63,97.15,80.63,107.84z"/>
		<path class="st1" d="M154.84,57.18c0,10.69-8.67,19.36-19.36,19.36c-10.69,0-19.36-8.67-19.36-19.36
			c0-10.69,8.67-19.36,19.36-19.36C146.17,37.82,154.84,46.49,154.84,57.18z"/>
		<path class="st1" d="M230.82,107.84c0,10.69-8.67,19.36-19.36,19.36s-19.36-8.67-19.36-19.36c0-10.69,8.67-19.36,19.36-19.36
			S230.82,97.15,230.82,107.84z"/>
		<path class="st1" d="M175.38,185.41c0,0,28.68,19.41,20.24,33.28c-8.44,13.88-32.29,8.42-34.1,5.44
			c-1.81-2.98-23.85,35.74-32.46,7.94c0,0-22.49,11.92-27.32-11.91c0,0-38.04,14.89-25.36-21.84c0,0,6.04-12.91,12.08-12.91
			c6.04,0,18.11-7.94,18.11-7.94s23.55,17.87,49.51,0L175.38,185.41z"/>
		<path class="st1" d="M183.7,136.62c0,26.63-21.59,48.22-48.21,48.22c-26.63,0-48.21-21.59-48.21-48.22
			c0-26.63,21.58-48.21,48.21-48.21C162.11,88.41,183.7,110,183.7,136.62z"/>
		<polygon class="st2" points="105.24,115.24 102.36,118.11 108.4,124.15 102.36,130.19 105.38,133.21 111.42,127.17 117.46,133.21 
			117.46,129.13 112.56,124.23 117.46,119.32 114.74,116.61 109.91,121.44 		"/>
		<polygon class="st2" points="155.35,107.84 151.73,122.64 155.35,122.64 		"/>
		<polygon class="st2" points="150.22,133.21 156.86,133.21 153.54,157.97 		"/>
		<path class="st3" d="M143.39,145.59c0,3.74-4.76,6.76-10.62,6.76c-5.87,0-10.62-3.03-10.62-6.76c0-3.74,4.75-6.77,10.62-6.77
			C138.63,138.82,143.39,141.85,143.39,145.59z"/>
		<path class="st1" d="M44.67,186.38c0,0,3.27,12.18,21.76,12.18c0,0,15.72-7.21,9.99-12.18c-5.73-4.97-2.58-2.22-1.85-4.97
			c0.73-2.75,6.29-20.03-3.7-21.96c0,0-8.51-2.57-6.66,2.24c1.85,4.81-0.06,5.97-1.25,7c0,0-5.92-3.7-6.49-5.62
			c-0.57-1.92-2.46-5.49,0.08-6.98c0,0,6.78-4.45,3.7-7.12c-3.08-2.67-6.08-4.31-7.64-3.49c-1.56,0.82-3.7-3.92-8.55-0.78
			c0,0-4.69-4.49-11.18,2.21c0,0-14.96,4.98-4.6,21.44C28.27,168.35,32.63,177.21,44.67,186.38z"/>
		<path class="st1" d="M217.64,184.65c0,0-5.03,13.13-22.88,10.65c0,0-14.06-10.13-7.76-14.9c6.3-4.76,2.83-2.12,2.55-5.29
			c-0.28-3.16-2.97-23.15,6.96-23.96c0,0,8.61-1.72,6.08,3.39c-2.53,5.11-0.86,6.66,0.13,7.97c0,0,6.29-3.33,7.14-5.4
			c0.85-2.07,3.23-5.78,1-7.79c0,0-5.86-5.87-2.47-8.43c3.39-2.56,6.54-3.99,7.92-2.86c1.38,1.12,4.18-3.87,8.37,0.27
			c0,0,5.22-4.37,10.45,3.96c0,0,13.67,7.56,1.13,24.5C236.25,166.75,230.68,176.04,217.64,184.65z"/>
	</g>
</g>
</svg>
