<?xml version="1.0" encoding="utf-8"?>
<!-- Generator: Adobe Illustrator 26.0.1, SVG Export Plug-In . SVG Version: 6.00 Build 0)  -->
<svg version="1.1" id="Livello_1" xmlns="http://www.w3.org/2000/svg" xmlns:xlink="http://www.w3.org/1999/xlink" x="0px" y="0px"
	 viewBox="0 0 265.53 273.26" style="enable-background:new 0 0 265.53 273.26;" xml:space="preserve">
<style type="text/css">
	.st0{fill:none;stroke:#61DAFB;stroke-width:10;stroke-miterlimit:10;}
	.st1{fill:#61DAFB;}
	.st2{fill:#EAF4E6;}
	.st3{fill:#EF3D39;}
	.st4{fill:none;stroke:#231F20;stroke-width:10;stroke-miterlimit:10;}
	.st5{fill:#FFFFFF;}
</style>
<g>
	<path class="st0" d="M136.98,25.39C72.31,23.06,18,73.6,15.68,138.27c-2.33,64.67,48.21,118.98,112.88,121.3
		c64.67,2.33,118.98-48.21,121.3-112.88C252.19,82.03,201.65,27.72,136.98,25.39z"/>
	<path class="st0" d="M118.62,142.48c0,20.29-16.45,36.75-36.75,36.75s-36.75-16.45-36.75-36.75c0-20.29,16.45-36.75,36.75-36.75
		S118.62,122.19,118.62,142.48z"/>
	<path class="st0" d="M220.41,142.48c0,20.29-16.45,36.75-36.75,36.75s-36.75-16.45-36.75-36.75c0-20.29,16.45-36.75,36.75-36.75
		S220.41,122.19,220.41,142.48z"/>
	<path class="st0" d="M115.35,127.72c0,0,20.75-31.5,36.75,0"/>
</g>
</svg>
